<svg aria-hidden="true" style="position: absolute; width: 0; height: 0; overflow: hidden;" version="1.1" xmlns="http://www.w3.org/2000/svg" xmlns:xlink="http://www.w3.org/1999/xlink">
<defs>
<symbol id="logo-workit" viewBox="0 0 123 32">
<title>logo-workit</title>
<path d="M85.661 31.007v-6.84l2.458-2.703 5.693 9.544h6.963l-8.069-13.353 8.11-9.011h-7.578l-7.578 8.069v-16.712h-6.144v31.007h6.144zM55.301 29.983c-1.802 1.010-3.809 1.516-6.021 1.516s-4.226-0.505-6.042-1.516c-1.816-1.010-3.263-2.396-4.342-4.157s-1.618-3.761-1.618-6.001c0-2.266 0.539-4.273 1.618-6.021s2.526-3.127 4.342-4.137c1.816-1.010 3.83-1.516 6.042-1.516s4.219 0.505 6.021 1.516c1.802 1.010 3.243 2.389 4.321 4.137s1.618 3.755 1.618 6.021c0 2.239-0.539 4.239-1.618 6.001s-2.519 3.147-4.321 4.157zM45.204 24.248c1.051 1.147 2.41 1.72 4.076 1.72s3.017-0.573 4.055-1.72c1.038-1.147 1.556-2.621 1.556-4.424 0-1.775-0.519-3.243-1.556-4.403s-2.389-1.741-4.055-1.741c-1.666 0-3.024 0.58-4.076 1.741s-1.577 2.628-1.577 4.403c0 1.802 0.526 3.277 1.577 4.424zM13.025 31.007l5.202-14.336 5.161 14.336h5.325l7.741-22.364h-6.39l-4.342 12.984-4.833-12.984h-5.325l-4.874 12.984-4.342-12.984h-6.349l7.7 22.364h5.325zM70.419 18.965v12.042h-6.144v-22.364h5.734v3.359c0.573-1.393 1.386-2.342 2.437-2.847s2.26-0.758 3.625-0.758h1.311v5.325h-1.925c-1.502 0-2.717 0.457-3.645 1.372s-1.393 2.205-1.393 3.871zM106.555 0.492v4.506h-2.458v-4.506h2.458zM106.555 31.007v-21.75h-2.458v21.75h2.458zM121.551 31.212c-0.382 0.027-0.683 0.041-0.901 0.041-1.83 0-3.229-0.512-4.198-1.536s-1.454-2.519-1.454-4.485v-13.64h-4.096v-2.335h1.556c0.792 0 1.413-0.246 1.864-0.737s0.676-1.161 0.676-2.007v-2.335h2.458v5.079h4.751v2.335h-4.751v13.64c0 0.601 0.089 1.188 0.266 1.761s0.526 1.038 1.044 1.393c0.519 0.355 1.27 0.532 2.253 0.532 0.218 0 0.485-0.014 0.799-0.041s0.567-0.055 0.758-0.082v2.253c-0.3 0.082-0.642 0.137-1.024 0.164z"></path>
</symbol>
</defs>
</svg>
