<svg width="96" height="25" viewBox="0 0 96 25" fill="none" xmlns="http://www.w3.org/2000/svg">
<path fill-rule="evenodd" clip-rule="evenodd" d="M66.9227 24.224V18.88L68.8427 16.768L73.2907 24.224H78.7307L72.4267 13.792L78.7627 6.752H72.8427L66.9227 13.056V0H62.1227V24.224H66.9227ZM43.2036 23.424C41.7956 24.2134 40.2276 24.608 38.4996 24.608C36.7716 24.608 35.1982 24.2134 33.7796 23.424C32.3609 22.6347 31.2302 21.552 30.3876 20.176C29.5449 18.8 29.1236 17.2374 29.1236 15.488C29.1236 13.7174 29.5449 12.1494 30.3876 10.784C31.2302 9.41871 32.3609 8.34138 33.7796 7.55204C35.1982 6.76271 36.7716 6.36804 38.4996 6.36804C40.2276 6.36804 41.7956 6.76271 43.2036 7.55204C44.6116 8.34138 45.7369 9.41871 46.5796 10.784C47.4222 12.1494 47.8436 13.7174 47.8436 15.488C47.8436 17.2374 47.4222 18.8 46.5796 20.176C45.7369 21.552 44.6116 22.6347 43.2036 23.424ZM35.3156 18.944C36.1369 19.84 37.1982 20.288 38.4996 20.288C39.8009 20.288 40.8569 19.84 41.6676 18.944C42.4782 18.048 42.8836 16.896 42.8836 15.488C42.8836 14.1013 42.4782 12.9547 41.6676 12.048C40.8569 11.1413 39.8009 10.688 38.4996 10.688C37.1982 10.688 36.1369 11.1413 35.3156 12.048C34.4942 12.9547 34.0836 14.1013 34.0836 15.488C34.0836 16.896 34.4942 18.048 35.3156 18.944ZM10.176 24.224L14.24 13.024L18.272 24.224H22.432L28.48 6.75195H23.488L20.096 16.896L16.32 6.75195H12.16L8.352 16.896L4.96 6.75195H0L6.016 24.224H10.176ZM55.0151 14.8161V24.2241H50.2151V6.75206H54.6951V9.37606C55.1431 8.28806 55.7778 7.54673 56.5991 7.15206C57.4204 6.75739 58.3644 6.56006 59.4311 6.56006H60.4551V10.7201H58.9511C57.7778 10.7201 56.8284 11.0774 56.1031 11.7921C55.3778 12.5067 55.0151 13.5147 55.0151 14.8161ZM83.2462 0.384033V3.90403H81.3262V0.384033H83.2462ZM83.2462 24.2241V7.23206H81.3262V24.2241H83.2462ZM94.9618 24.384C94.6631 24.4054 94.4284 24.416 94.2578 24.416C92.8284 24.416 91.7351 24.016 90.9778 23.216C90.2204 22.416 89.8418 21.248 89.8418 19.712V9.05604H86.6418V7.23204H87.8578C88.4764 7.23204 88.9618 7.04004 89.3138 6.65604C89.6658 6.27204 89.8418 5.74937 89.8418 5.08804V3.26404H91.7618V7.23204H95.4738V9.05604H91.7618V19.712C91.7618 20.1814 91.8311 20.64 91.9698 21.088C92.1084 21.536 92.3804 21.8987 92.7858 22.176C93.1911 22.4534 93.7778 22.592 94.5458 22.592C94.7164 22.592 94.9244 22.5814 95.1698 22.56C95.4151 22.5387 95.6124 22.5174 95.7618 22.496V24.256C95.5271 24.32 95.2604 24.3627 94.9618 24.384Z" fill="#24053E"/>
</svg>
