<svg aria-hidden="true" style="position: absolute; width: 0; height: 0; overflow: hidden;" version="1.1" xmlns="http://www.w3.org/2000/svg" xmlns:xlink="http://www.w3.org/1999/xlink">
<defs>
<symbol id="icon-fb" viewBox="0 0 32 32">
<title>icon-fb</title>
<path d="M30.233-0h-28.467c-0.976 0-1.767 0.791-1.767 1.767v28.468c0 0.975 0.791 1.765 1.767 1.765h15.327v-12.392h-4.171v-4.829h4.171v-3.561c0-4.133 2.524-6.384 6.212-6.384 1.767 0 3.284 0.132 3.727 0.191v4.32l-2.557 0.001c-2.005 0-2.393 0.953-2.393 2.351v3.084h4.783l-0.623 4.829h-4.16v12.391h8.155c0.973 0 1.764-0.791 1.764-1.767v-28.467c0-0.976-0.791-1.767-1.767-1.767z"></path>
</symbol>
<symbol id="icon-tw" viewBox="0 0 38 32">
<title>icon-tw</title>
<path d="M37.647 4.089c-1.385 0.615-2.874 1.029-4.436 1.216 1.595-0.955 2.821-2.469 3.396-4.273-1.492 0.885-3.145 1.528-4.905 1.875-1.407-1.501-3.416-2.439-5.638-2.439-4.987 0-8.651 4.653-7.525 9.482-6.417-0.322-12.108-3.396-15.918-8.069-2.024 3.471-1.049 8.013 2.389 10.312-1.264-0.041-2.456-0.387-3.496-0.966-0.085 3.578 2.48 6.925 6.194 7.671-1.087 0.295-2.278 0.364-3.489 0.132 0.982 3.068 3.834 5.3 7.216 5.363-3.247 2.546-7.338 3.683-11.435 3.2 3.418 2.191 7.479 3.47 11.84 3.47 14.34 0 22.442-12.111 21.953-22.974 1.509-1.090 2.819-2.45 3.854-3.998z"></path>
</symbol>
<symbol id="icon-in" viewBox="0 0 30 32">
<title>icon-in</title>
<path d="M8.956 0.433c1.625-0.074 2.143-0.091 6.282-0.091s4.658 0.018 6.285 0.093c5.539 0.254 8.613 3.335 8.862 8.864 0.074 1.625 0.091 2.143 0.091 6.282s-0.018 4.658-0.093 6.283c-0.25 5.539-3.333 8.61-8.862 8.864-1.625 0.074-2.145 0.091-6.283 0.091s-4.656-0.018-6.283-0.091c-5.539-0.254-8.61-3.33-8.864-8.864-0.074-1.625-0.091-2.145-0.091-6.283s0.018-4.656 0.093-6.283c0.254-5.539 3.33-8.61 8.864-8.864zM21.397 3.177c-1.608-0.074-2.090-0.089-6.159-0.089s-4.55 0.015-6.157 0.088c-4.133 0.188-6.057 2.149-6.246 6.246-0.072 1.608-0.089 2.089-0.089 6.157 0 4.070 0.015 4.551 0.089 6.157 0.188 4.090 2.107 6.058 6.246 6.248 1.606 0.074 2.089 0.089 6.157 0.089 4.071 0 4.551-0.015 6.159-0.089 4.133-0.188 6.057-2.151 6.246-6.246 0.072-1.606 0.088-2.088 0.088-6.158 0-4.069-0.014-4.551-0.088-6.157-0.188-4.099-2.117-6.058-6.246-6.246zM7.413 15.579c0-4.321 3.503-7.825 7.825-7.825s7.825 3.503 7.825 7.825c0 4.323-3.504 7.826-7.825 7.826s-7.825-3.505-7.825-7.826zM10.159 15.579c0 2.806 2.274 5.079 5.079 5.079s5.079-2.273 5.079-5.079c0-2.805-2.274-5.079-5.079-5.079s-5.079 2.274-5.079 5.079zM21.543 7.446c0-1.010 0.819-1.829 1.83-1.829 1.010 0 1.827 0.819 1.827 1.829s-0.818 1.829-1.827 1.829c-1.011 0-1.83-0.819-1.83-1.829z"></path>
</symbol>
</defs>
</svg>
